<?xml version="1.0" encoding="UTF-8" standalone="no"?>
<!-- Uploaded to: SVG Repo, www.svgrepo.com, Generator: SVG Repo Mixer Tools -->

<svg
   width="48"
   height="48"
   viewBox="0 0 1.44 1.44"
   version="1.1"
   id="svg6"
   sodipodi:docname="banana_half.svg"
   inkscape:version="1.2.2 (b0a8486541, 2022-12-01)"
   inkscape:export-filename="banana.png"
   inkscape:export-xdpi="167.02"
   inkscape:export-ydpi="167.02"
   xmlns:inkscape="http://www.inkscape.org/namespaces/inkscape"
   xmlns:sodipodi="http://sodipodi.sourceforge.net/DTD/sodipodi-0.dtd"
   xmlns="http://www.w3.org/2000/svg"
   xmlns:svg="http://www.w3.org/2000/svg">
  <defs
     id="defs10" />
  <sodipodi:namedview
     id="namedview8"
     pagecolor="#ffffff"
     bordercolor="#999999"
     borderopacity="1"
     inkscape:showpageshadow="0"
     inkscape:pageopacity="0"
     inkscape:pagecheckerboard="true"
     inkscape:deskcolor="#d1d1d1"
     showgrid="false"
     inkscape:zoom="7.2546884"
     inkscape:cx="23.777727"
     inkscape:cy="39.078177"
     inkscape:window-width="1804"
     inkscape:window-height="1150"
     inkscape:window-x="0"
     inkscape:window-y="0"
     inkscape:window-maximized="0"
     inkscape:current-layer="svg6" />
  <rect
     style="fill:#ffffff;fill-opacity:1;stroke:none;stroke-width:0.0226773;stroke-linecap:round"
     id="rect951"
     width="1.4400001"
     height="1.4399999"
     x="-1.1456612e-16"
     y="0" />
  <path
     id="path2"
     style="stroke-width:0.999999"
     d="M 0.67658203 0.39744141 A 0.4297438 0.4297438 0 0 0 0.38103516 0.51076172 A 0.35158453 0.35158453 0 0 0 0.29085937 0.76488281 L 0.29085937 0.82658203 L 0.34933594 0.84773437 A 0.53389008 0.53389008 0 0 1 0.72 0.66152344 L 0.72 0.59560547 A 0.61178485 0.61178485 0 0 0 0.35671875 0.74455078 A 0.27871521 0.27871521 0 0 1 0.42873047 0.55658203 A 0.36778505 0.36778505 0 0 1 0.70353516 0.46470703 A 0.26727565 0.26727565 0 0 1 0.72 0.46552734 L 0.72 0.39896484 A 0.31224039 0.31224039 0 0 0 0.70353516 0.39861328 A 0.4297438 0.4297438 0 0 0 0.67658203 0.39744141 z M 0.72 0.73617187 A 1.1895817 1.1895817 0 0 1 0.19207031 0.991875 L 0.092460937 0.991875 L 0.092460937 1.1889258 L 0.18732422 1.1929102 A 0.87522528 0.87522528 0 0 0 0.52230469 1.2563672 A 0.77881563 0.77881563 0 0 0 0.72 1.2304102 L 0.72 1.1619727 A 0.72188233 0.72188233 0 0 1 0.52230469 1.1902148 A 0.84818033 0.84818033 0 0 1 0.28634766 1.157168 L 0.286875 1.1291016 C 0.30446418 1.1296959 0.31903413 1.1297461 0.32888672 1.1297461 C 0.47382318 1.1297461 0.60649504 1.1052759 0.72 1.0588477 L 0.72 0.98695312 C 0.60935314 1.0371124 0.47620576 1.0636523 0.32894531 1.0636523 C 0.31935732 1.0636523 0.30529025 1.0635442 0.28816406 1.0629492 L 0.28863281 1.0376367 A 1.3070851 1.3070851 0 0 0 0.72 0.82013672 L 0.72 0.73617187 z M 0.22230469 1.0520508 L 0.22072266 1.1343164 C 0.21642466 1.1325964 0.21171186 1.1313503 0.20748047 1.1295703 L 0.15861328 1.1254688 L 0.15861328 1.0577344 L 0.19763672 1.0574414 C 0.20577071 1.0561214 0.214039 1.0537008 0.22230469 1.0520508 z " />
  <path
     fill="none"
     d="M 0,0 H 1.44 V 1.44 H 0 Z"
     id="path4"
     style="stroke-width:0.999999" />
</svg>
