<?xml version="1.0" encoding="UTF-8" standalone="no"?>
<!-- Uploaded to: SVG Repo, www.svgrepo.com, Generator: SVG Repo Mixer Tools -->

<svg
   width="48"
   height="48"
   viewBox="0 0 1.44 1.44"
   version="1.1"
   id="svg6"
   sodipodi:docname="banana.svg"
   inkscape:version="1.2.2 (b0a8486541, 2022-12-01)"
   inkscape:export-filename="banana.png"
   inkscape:export-xdpi="167.02"
   inkscape:export-ydpi="167.02"
   xmlns:inkscape="http://www.inkscape.org/namespaces/inkscape"
   xmlns:sodipodi="http://sodipodi.sourceforge.net/DTD/sodipodi-0.dtd"
   xmlns="http://www.w3.org/2000/svg"
   xmlns:svg="http://www.w3.org/2000/svg">
  <defs
     id="defs10" />
  <sodipodi:namedview
     id="namedview8"
     pagecolor="#ffffff"
     bordercolor="#999999"
     borderopacity="1"
     inkscape:showpageshadow="0"
     inkscape:pageopacity="0"
     inkscape:pagecheckerboard="true"
     inkscape:deskcolor="#d1d1d1"
     showgrid="false"
     inkscape:zoom="9.44"
     inkscape:cx="25.317797"
     inkscape:cy="24.311441"
     inkscape:window-width="1708"
     inkscape:window-height="1390"
     inkscape:window-x="0"
     inkscape:window-y="0"
     inkscape:window-maximized="0"
     inkscape:current-layer="svg6" />
  <rect
     style="fill:#ffffff;fill-opacity:1;stroke:none;stroke-width:0.0226773;stroke-linecap:round"
     id="rect951"
     width="1.4400001"
     height="1.4399999"
     x="-1.1456612e-16"
     y="0" />
  <path
     d="M 1.3488485,0.36368533 C 1.3488485,0.14613539 1.2734664,0 1.1614513,0 1.0575035,0 1.0399804,0.10269152 1.0213994,0.21133424 a 0.70554953,0.70554953 0 0 1 -0.092839,0.28102958 0.31224039,0.31224039 0 0 0 -0.22502205,-0.0937647 0.4297438,0.4297438 0 0 0 -0.32248968,0.11214733 0.35158453,0.35158453 0 0 0 -0.090194,0.25411687 v 0.0616943 l 0.0584542,0.0211598 a 0.53389008,0.53389008 0 0 1 0.43748035,-0.1864714 l 0.0140185,1.9839e-4 A 1.1895817,1.1895817 0 0 1 0.19206453,0.99186909 H 0.09248089 V 1.1889205 l 0.0948227,0.00397 A 0.87522528,0.87522528 0 0 0 0.52229082,1.2563676 0.77881563,0.77881563 0 0 0 0.99772676,1.0930397 1.2047904,1.2047904 0 0 1 0.89106777,1.3879555 l 0.0198373,0.048205 a 0.11089097,0.11089097 0 0 0 0.0298883,0.00384 c 0.12722373,0 0.33776453,-0.1983077 0.33776453,-0.4243217 A 0.37657962,0.37657962 0 0 0 1.2241374,0.82404485 0.88474725,0.88474725 0 0 0 1.3488485,0.36368533 Z M 1.0865982,0.22250931 c 0.019375,-0.11353596 0.030814,-0.1563847 0.074853,-0.1563847 0.07029,0 0.1212725,0.12517389 0.1212725,0.29756072 A 0.82741719,0.82741719 0 0 1 1.182479,0.76440046 0.40699696,0.40699696 0 0 0 1.0589582,0.65893171 L 1.0212672,0.63122551 A 0.42551185,0.42551185 0 0 0 0.97266553,0.54420552 0.73054464,0.73054464 0 0 0 1.0865982,0.22250931 Z M 0.35671481,0.74462919 A 0.27871521,0.27871521 0 0 1 0.4287245,0.55657082 0.36778505,0.36778505 0 0 1 0.70353833,0.46472367 0.26727565,0.26727565 0 0 1 0.9334536,0.60265962 1.1832337,1.1832337 0 0 0 0.78678924,0.5951216 0.61178485,0.61178485 0 0 0 0.3567148,0.74456318 Z M 0.15860549,1.1254408 v -0.067712 l 0.0390135,-2.633e-4 c 0.008134,-0.00132 0.0163988,-0.00377 0.0246645,-0.00542 l -0.001587,0.082259 c -0.004298,-0.00172 -0.008993,-0.00298 -0.0132244,-0.00476 z m 0.36368533,0.064802 A 0.84818033,0.84818033 0 0 1 0.28635824,1.1571806 l 5.2911e-4,-0.028103 c 0.0175892,5.943e-4 0.0321365,6.619e-4 0.0419891,6.619e-4 0.26053097,0 0.48151938,-0.079019 0.62256319,-0.2226415 L 0.90422654,0.860744 C 0.77581255,0.99167069 0.57148753,1.0636804 0.32894247,1.0636804 c -0.009588,0 -0.0236727,-1.322e-4 -0.0407989,-7.272e-4 l 4.6392e-4,-0.025325 a 1.3070851,1.3070851 0 0 0 0.60113878,-0.37267814 0.71765034,0.71765034 0 0 1 0.0806721,0.0109767 l 0.0431131,0.0317392 a 0.92825723,0.92825723 0 0 1 0.011902,0.1462014 1.0372305,1.0372305 0 0 1 -0.00979,0.13932453 0.72188233,0.72188233 0 0 1 -0.49335268,0.19705091 z m 0.45301964,0.177148 A 1.2631783,1.2631783 0 0 0 1.0916237,0.85386704 c 0,-0.0319382 -0.00152,-0.0637441 -0.00436,-0.0941615 A 0.34774931,0.34774931 0 0 1 1.2124334,1.015674 0.41083218,0.41083218 0 0 1 0.97531046,1.3673908 Z"
     id="path2"
     style="stroke-width:0.999999" />
  <path
     fill="none"
     d="M 0,0 H 1.44 V 1.44 H 0 Z"
     id="path4"
     style="stroke-width:0.999999" />
</svg>
